<?xml version="1.0" standalone="no"?>
<!DOCTYPE svg PUBLIC "-//W3C//DTD SVG 20010904//EN"
 "http://www.w3.org/TR/2001/REC-SVG-20010904/DTD/svg10.dtd">
<svg version="1.0" xmlns="http://www.w3.org/2000/svg"
 width="200.000000pt" height="200.000000pt" viewBox="0 0 200.000000 200.000000"
 preserveAspectRatio="xMidYMid meet">
<metadata>
Created by potrace 1.11, written by Peter Selinger 2001-2013
</metadata>
<g transform="translate(0.000000,200.000000) scale(0.100000,-0.100000)"
fill="#000000" stroke="none">
<path d="M920 1644 c-22 -6 -59 -23 -82 -37 -46 -27 -627 -603 -639 -634 -12
-30 -9 -96 5 -122 19 -34 436 -450 468 -467 15 -8 42 -14 60 -14 80 1 76 6
-189 272 -168 168 -253 260 -253 274 0 14 119 139 362 382 378 379 378 378
268 346z"/>
<path d="M1209 1646 c-25 -6 -66 -24 -91 -39 -57 -33 -633 -609 -646 -645 -9
-27 -9 -44 3 -91 9 -38 450 -478 492 -492 19 -6 51 -8 74 -4 37 6 69 35 342
309 388 387 374 360 372 681 -1 172 -3 194 -21 225 -36 63 -64 70 -284 69
-121 0 -212 -5 -241 -13z m287 -186 c8 0 53 -52 63 -72 17 -33 10 -98 -14
-134 -22 -34 -89 -63 -129 -57 -113 18 -162 150 -85 229 36 37 90 54 134 42
16 -4 30 -8 31 -8z"/>
</g>
</svg>
