<?xml version="1.0" standalone="no"?>
<!DOCTYPE svg PUBLIC "-//W3C//DTD SVG 20010904//EN"
 "http://www.w3.org/TR/2001/REC-SVG-20010904/DTD/svg10.dtd">
<svg version="1.0" xmlns="http://www.w3.org/2000/svg"
 width="3311.000000pt" height="3311.000000pt" viewBox="0 0 3311.000000 3311.000000"
 preserveAspectRatio="xMidYMid meet">
<metadata>
Created by potrace 1.11, written by Peter Selinger 2001-2013
</metadata>
<g transform="translate(0.000000,3311.000000) scale(0.100000,-0.100000)"
fill="#000000" stroke="none">
<path d="M0 16555 l0 -16555 16555 0 16555 0 0 16555 0 16555 -16555 0 -16555
0 0 -16555z m17545 7796 c4 -13 12 -17 25 -14 13 3 22 -1 26 -12 5 -11 14 -15
29 -11 17 4 24 1 28 -15 5 -17 9 -19 25 -10 16 9 21 7 25 -10 4 -16 11 -19 26
-14 14 4 23 1 27 -9 3 -9 17 -16 30 -16 15 0 24 -6 24 -16 0 -12 6 -15 24 -10
18 4 25 1 29 -14 4 -14 10 -18 23 -13 11 4 22 0 30 -12 8 -10 20 -15 29 -11
12 4 19 0 22 -14 4 -15 11 -18 28 -14 15 4 24 0 29 -11 4 -11 13 -15 26 -12
13 3 21 -1 25 -14 5 -14 12 -18 29 -13 16 4 25 0 30 -11 4 -11 12 -14 25 -10
14 4 21 0 26 -14 4 -13 12 -17 25 -14 13 3 22 -1 26 -12 5 -11 14 -15 29 -11
17 4 24 1 28 -14 3 -14 10 -18 22 -14 9 4 21 -1 29 -11 8 -12 19 -16 30 -12
13 5 19 1 23 -12 3 -13 11 -17 25 -13 13 3 24 -1 30 -12 6 -11 16 -15 28 -11
13 4 20 0 25 -14 3 -11 11 -18 18 -16 51 15 66 14 72 -4 4 -13 12 -18 22 -14
9 4 21 -1 29 -12 8 -10 20 -15 29 -11 12 4 19 0 22 -14 6 -23 8 -23 33 -10 14
8 19 5 23 -11 4 -15 11 -19 25 -14 15 4 22 0 26 -13 5 -14 13 -18 31 -14 19 3
25 0 25 -13 0 -13 6 -16 24 -11 18 4 25 1 29 -14 3 -14 10 -18 22 -14 9 4 21
-1 29 -11 8 -12 19 -16 30 -12 13 5 19 1 23 -13 4 -15 11 -18 29 -14 18 5 24
2 24 -11 0 -13 6 -16 25 -13 18 4 26 0 31 -14 4 -13 11 -17 25 -13 12 4 21 1
25 -9 3 -9 16 -16 29 -16 13 0 26 -7 29 -16 4 -10 13 -13 25 -9 12 3 21 0 25
-10 3 -8 15 -15 26 -15 11 0 23 -7 27 -16 4 -10 13 -14 28 -10 17 4 24 1 28
-15 5 -17 9 -19 25 -10 16 9 21 7 25 -10 4 -16 11 -19 27 -14 16 5 23 2 27
-13 4 -17 9 -19 28 -12 19 7 24 5 28 -12 4 -14 11 -18 25 -13 15 4 22 0 27
-14 4 -13 12 -17 25 -14 13 3 22 -1 26 -12 5 -11 14 -15 29 -11 17 4 24 1 28
-15 5 -17 9 -19 25 -10 16 9 21 7 25 -10 4 -16 11 -19 26 -14 14 4 23 1 27 -9
3 -9 17 -16 30 -16 15 0 24 -6 24 -16 0 -12 6 -15 24 -10 19 5 26 1 31 -13 4
-13 12 -18 22 -14 9 4 21 -1 29 -12 8 -10 20 -15 29 -11 12 4 19 0 22 -14 4
-15 11 -18 28 -14 15 4 24 0 29 -11 4 -11 13 -15 26 -12 13 3 21 -1 25 -14 5
-14 12 -18 29 -13 16 4 25 0 30 -11 4 -11 12 -14 25 -10 14 4 21 0 26 -14 4
-13 12 -17 25 -14 13 3 22 -1 26 -12 5 -11 14 -15 29 -11 17 4 24 1 28 -14 3
-14 10 -18 22 -14 9 4 21 -1 29 -11 8 -12 19 -16 30 -12 13 5 19 1 23 -12 3
-13 11 -17 25 -13 13 3 24 -1 30 -12 6 -11 16 -15 28 -11 13 4 20 0 25 -14 3
-11 11 -18 18 -16 51 15 66 14 72 -4 4 -13 12 -18 22 -14 9 4 21 -1 29 -12 7
-10 20 -15 28 -12 10 4 20 -2 26 -13 9 -16 15 -18 29 -10 15 8 20 5 24 -11 4
-15 11 -19 25 -14 15 4 22 0 26 -13 5 -14 13 -18 31 -14 19 3 25 0 25 -13 0
-13 6 -16 24 -11 18 4 25 1 29 -14 4 -14 10 -18 23 -13 11 4 22 0 30 -12 8
-10 20 -15 29 -11 12 4 19 0 22 -14 4 -15 11 -18 29 -14 18 5 24 2 24 -11 0
-13 6 -16 25 -13 18 4 26 0 31 -14 4 -13 11 -17 24 -13 12 4 22 0 28 -11 6
-11 17 -15 30 -12 14 4 22 0 25 -14 4 -14 11 -18 25 -14 13 4 22 1 26 -9 3 -8
15 -15 26 -15 11 0 23 -7 27 -16 4 -10 13 -14 28 -10 17 4 24 1 28 -15 5 -17
9 -19 25 -10 16 9 21 7 25 -10 4 -16 11 -19 27 -14 16 5 23 2 26 -13 4 -14 12
-18 30 -14 18 3 24 0 24 -13 0 -13 6 -16 24 -11 18 4 26 1 30 -12 4 -11 15
-18 27 -18 17 1 26 -13 50 -76 16 -43 24 -78 19 -78 -5 0 -13 8 -19 17 -35 64
7 -66 207 -629 193 -545 228 -638 245 -638 10 0 21 -9 24 -20 3 -11 6 -20 7
-20 0 0 44 16 96 35 86 31 96 33 107 19 11 -15 20 -14 100 12 48 16 94 30 101
32 6 2 12 -4 12 -12 0 -21 6 -20 94 8 71 22 75 23 79 5 5 -18 7 -18 62 1 51
18 59 18 69 5 10 -14 17 -14 65 1 50 15 56 15 66 0 11 -14 17 -14 65 0 50 15
55 15 66 0 10 -15 16 -15 52 -3 37 13 41 13 45 -4 5 -18 8 -18 54 -4 61 19 73
19 73 -1 0 -11 6 -14 20 -10 11 3 29 9 41 12 13 4 25 0 32 -10 10 -14 17 -15
45 -5 28 10 35 9 46 -6 11 -16 17 -16 47 -6 29 10 36 9 46 -5 7 -10 19 -14 32
-10 12 3 30 9 41 12 14 4 20 1 20 -12 0 -16 27 -16 71 1 11 4 18 0 21 -13 4
-15 12 -19 32 -15 19 4 26 1 26 -10 0 -12 7 -13 38 -6 29 7 40 5 49 -7 9 -13
18 -14 48 -5 33 9 38 8 42 -9 4 -15 10 -17 28 -10 19 7 25 5 30 -10 5 -16 10
-17 42 -8 31 8 39 7 49 -7 8 -11 20 -15 32 -11 13 4 22 1 25 -8 5 -12 16 -14
47 -10 32 5 40 3 40 -10 0 -12 6 -15 24 -10 16 4 27 1 33 -10 6 -12 16 -13 45
-7 32 8 38 6 43 -10 5 -14 12 -18 31 -13 18 5 24 2 24 -11 0 -13 6 -16 24 -11
17 4 28 1 34 -10 7 -13 15 -14 45 -6 32 9 37 8 42 -9 5 -14 12 -18 31 -13 18
5 24 2 24 -11 0 -13 6 -16 24 -11 18 4 25 1 29 -13 3 -14 11 -17 31 -14 19 4
26 1 26 -11 0 -16 18 -16 68 0 8 2 16 -5 19 -16 4 -15 11 -18 29 -14 18 5 24
2 24 -11 0 -13 6 -16 24 -11 19 5 26 1 31 -13 4 -13 12 -17 25 -14 13 3 22 -1
26 -12 5 -11 14 -15 29 -11 16 4 25 1 29 -10 4 -11 13 -14 27 -11 15 4 23 0
26 -12 4 -16 10 -17 41 -10 28 6 39 5 45 -7 4 -7 19 -14 32 -14 16 0 25 -6 25
-16 0 -12 6 -15 24 -10 18 4 25 1 29 -15 5 -19 7 -19 44 -3 21 9 46 18 56 21
9 3 17 15 17 27 0 16 10 26 35 36 27 10 34 18 29 32 -4 14 4 21 35 34 30 12
40 21 38 36 -2 16 17 27 118 64 66 25 174 63 240 85 66 22 125 42 131 45 6 3
14 -4 17 -15 l5 -21 58 20 c68 24 64 24 64 5 0 -17 13 -19 57 -6 27 8 33 6 38
-8 4 -13 13 -17 30 -13 19 3 25 0 25 -13 0 -12 6 -15 20 -11 11 3 29 8 39 11
12 4 23 -1 29 -11 9 -16 15 -16 51 -5 35 10 41 16 36 31 -5 15 2 23 29 37 28
13 35 21 30 36 -4 13 0 20 15 24 15 4 19 11 15 27 -4 18 1 24 31 35 28 10 35
17 30 31 -4 13 0 20 15 25 15 5 19 12 14 29 -4 19 0 24 28 32 25 8 33 16 32
32 0 16 9 25 37 36 29 12 36 19 32 35 -4 15 3 22 32 32 29 11 35 17 31 35 -5
17 0 23 27 30 22 7 33 17 35 33 2 15 15 28 38 37 27 11 34 19 29 34 -4 13 0
20 17 25 59 18 89 38 83 55 -4 13 4 21 34 33 31 13 38 20 34 36 -4 15 3 21 31
31 27 8 36 17 36 33 0 17 11 27 53 43 40 15 51 24 49 39 -2 16 10 25 50 41 40
17 52 26 50 40 -2 15 10 24 50 40 41 16 53 25 51 40 -2 15 10 24 55 40 45 17
57 25 55 41 -2 15 15 26 90 55 62 25 94 33 99 26 3 -7 36 -97 73 -202 37 -105
125 -355 196 -556 111 -313 127 -367 114 -376 -8 -6 -15 -20 -15 -31 0 -14
-14 -24 -55 -38 -46 -15 -54 -22 -49 -37 4 -15 -3 -22 -35 -35 -34 -13 -39
-18 -31 -34 9 -16 4 -20 -31 -30 -35 -11 -39 -16 -35 -35 5 -19 0 -24 -29 -34
-27 -9 -35 -17 -35 -35 0 -18 -8 -26 -35 -35 -26 -9 -34 -16 -32 -33 1 -16 -6
-23 -31 -31 -28 -8 -33 -13 -29 -33 4 -20 -2 -25 -34 -35 -33 -9 -38 -14 -33
-33 5 -19 0 -25 -31 -35 -29 -10 -36 -16 -32 -31 4 -16 -3 -23 -33 -35 -28
-11 -37 -20 -33 -31 4 -9 -1 -21 -12 -29 -10 -8 -15 -20 -11 -29 4 -11 -5 -20
-34 -31 -28 -11 -37 -20 -33 -31 4 -9 -1 -21 -12 -29 -10 -8 -15 -20 -11 -29
4 -11 -5 -20 -34 -31 -28 -11 -37 -20 -33 -31 4 -9 -1 -21 -12 -29 -10 -8 -15
-20 -11 -29 4 -12 0 -19 -14 -22 -11 -3 -20 -7 -20 -9 0 -2 32 -92 70 -200 39
-108 70 -198 70 -200 0 -2 -7 -4 -16 -4 -20 0 -14 -29 35 -170 33 -91 40 -105
59 -103 13 2 23 -5 27 -18 5 -14 12 -18 26 -14 13 4 21 1 25 -10 5 -11 14 -15
29 -11 17 4 24 1 28 -14 3 -14 10 -18 22 -14 9 4 21 -1 29 -11 8 -12 19 -16
30 -12 13 5 19 1 23 -13 4 -15 11 -18 28 -14 15 4 24 0 29 -11 4 -12 13 -15
27 -12 12 3 22 0 26 -9 4 -11 15 -13 44 -9 31 5 41 2 45 -10 5 -12 14 -15 30
-11 18 5 24 2 24 -10 0 -16 27 -16 71 1 11 4 18 0 22 -14 4 -15 10 -19 23 -14
11 4 22 0 30 -12 11 -15 18 -16 45 -6 34 12 49 8 49 -14 0 -11 6 -12 24 -5 21
7 26 6 31 -11 4 -10 11 -17 16 -13 24 14 64 14 75 0 9 -13 17 -14 44 -4 28 9
35 9 46 -6 8 -12 20 -16 32 -12 13 4 22 1 26 -9 4 -11 14 -14 37 -10 18 3 36
8 40 10 4 3 10 -2 13 -10 4 -12 16 -14 51 -9 36 4 45 3 45 -9 0 -12 7 -13 41
-4 35 8 43 7 50 -6 7 -12 16 -14 45 -5 20 5 37 8 39 6 1 -2 37 -102 79 -223
43 -121 141 -399 218 -618 106 -300 138 -401 130 -409 -9 -9 -15 -7 -26 7 -13
19 -16 19 -68 2 -66 -21 -68 -21 -68 -2 0 11 -8 13 -32 8 -18 -3 -41 -10 -50
-14 -26 -14 -48 -11 -48 6 0 8 -4 15 -9 15 -5 0 -28 -7 -51 -15 -23 -8 -49
-15 -56 -15 -8 0 -14 7 -14 15 0 19 -11 19 -55 1 -30 -13 -35 -13 -35 -1 0 22
-15 26 -50 13 -28 -9 -35 -8 -46 7 -11 15 -18 16 -45 6 -42 -15 -49 -14 -49 5
0 12 -6 15 -22 10 -67 -18 -68 -18 -68 -1 0 14 -6 16 -27 12 -16 -3 -35 -8
-44 -12 -11 -4 -18 0 -22 14 -5 20 -7 20 -46 7 -38 -14 -40 -14 -46 5 -5 14
-12 18 -29 13 -16 -4 -25 0 -29 10 -5 12 -13 13 -39 5 -44 -12 -48 -12 -48 7
0 16 -28 16 -72 -1 -11 -4 -18 0 -23 14 -4 13 -11 18 -22 14 -9 -4 -21 1 -28
10 -10 13 -18 15 -46 7 -28 -8 -36 -7 -46 6 -7 10 -20 14 -32 11 -13 -3 -21 1
-24 14 -5 18 -8 18 -46 5 -38 -14 -40 -14 -46 5 -5 14 -12 18 -27 14 -14 -5
-21 -1 -25 13 -4 17 -9 19 -28 12 -19 -7 -25 -5 -30 10 -5 16 -10 17 -41 8
-30 -8 -38 -6 -48 8 -8 10 -20 15 -29 11 -10 -4 -18 1 -22 14 -5 14 -12 18
-31 13 -18 -5 -24 -2 -24 11 0 13 -6 16 -25 11 -18 -5 -27 -2 -32 9 -4 11 -13
15 -28 11 -17 -4 -24 -1 -28 14 -4 17 -9 18 -37 10 -36 -10 -50 -6 -50 15 0
11 -6 12 -24 5 -20 -7 -25 -5 -29 12 -4 14 -11 18 -25 13 -15 -4 -22 0 -27 14
-4 13 -11 18 -22 14 -9 -4 -21 1 -28 10 -16 23 -55 11 -52 -16 2 -16 -9 -25
-48 -41 -35 -15 -50 -27 -50 -40 0 -14 -22 -27 -93 -54 -76 -30 -92 -40 -90
-56 4 -27 -67 -53 -80 -29 -8 14 -23 12 -123 -20 -101 -32 -114 -34 -124 -20
-11 14 -17 14 -65 -2 -50 -17 -53 -17 -62 0 -7 12 -17 15 -34 11 -18 -5 -24
-2 -24 10 0 9 -7 14 -17 12 -10 -2 -18 -11 -18 -21 0 -11 -14 -25 -35 -35 -27
-13 -34 -22 -32 -39 2 -16 -2 -23 -13 -23 -13 0 -16 -6 -13 -24 4 -18 0 -26
-14 -30 -14 -3 -18 -10 -13 -24 4 -15 0 -22 -14 -27 -13 -4 -17 -12 -14 -25 3
-13 -1 -22 -12 -26 -11 -5 -15 -14 -11 -29 4 -17 1 -24 -13 -28 -14 -3 -18
-11 -15 -25 4 -15 -2 -23 -25 -33 -21 -9 -31 -21 -31 -35 0 -13 -8 -24 -20
-27 -14 -3 -18 -10 -14 -22 4 -9 -1 -21 -11 -29 -12 -8 -16 -19 -12 -30 5 -13
1 -19 -13 -23 -15 -4 -18 -11 -14 -29 5 -18 2 -24 -11 -24 -13 0 -16 -6 -13
-24 4 -20 -1 -27 -33 -39 -31 -12 -37 -19 -32 -36 4 -15 1 -21 -12 -21 -13 0
-16 -6 -13 -25 4 -18 0 -26 -14 -31 -13 -4 -17 -11 -13 -24 5 -14 -3 -23 -30
-36 -26 -12 -34 -21 -30 -34 4 -13 -1 -20 -15 -25 -15 -5 -19 -12 -15 -27 5
-14 1 -21 -13 -24 -14 -4 -18 -12 -15 -29 4 -19 -1 -25 -31 -35 -30 -10 -36
-15 -30 -32 4 -14 0 -21 -14 -25 -17 -4 -19 -9 -12 -28 8 -20 4 -24 -31 -34
-33 -10 -39 -15 -34 -32 5 -15 2 -22 -13 -26 -17 -4 -19 -9 -12 -28 8 -20 5
-24 -18 -30 -35 -9 -52 -23 -46 -40 4 -8 -8 -20 -31 -30 -26 -13 -34 -22 -30
-35 4 -13 -1 -20 -15 -25 -15 -5 -19 -12 -15 -26 5 -15 -1 -23 -30 -35 -28
-11 -36 -20 -32 -34 4 -14 -4 -22 -33 -34 -30 -12 -37 -19 -33 -35 4 -15 -3
-21 -32 -31 -29 -10 -36 -16 -32 -32 5 -16 -2 -23 -32 -35 -30 -12 -37 -19
-34 -34 4 -15 -3 -23 -31 -34 -28 -12 -36 -20 -31 -34 4 -14 -4 -21 -34 -33
-31 -12 -39 -20 -35 -35 4 -15 -5 -23 -45 -40 -36 -15 -51 -27 -51 -40 0 -13
-12 -23 -35 -32 -26 -9 -35 -18 -35 -35 0 -18 -10 -25 -55 -40 -47 -17 -54
-22 -49 -40 4 -19 -3 -24 -51 -41 -49 -16 -56 -21 -51 -40 5 -19 -1 -24 -54
-40 -33 -10 -60 -22 -60 -27 0 -4 -7 -8 -16 -8 -10 0 -13 -6 -10 -18 5 -15 -7
-24 -71 -49 -67 -26 -78 -33 -75 -52 2 -11 -1 -21 -7 -21 -5 0 -58 -18 -116
-41 -88 -34 -105 -44 -100 -59 5 -15 -21 -26 -172 -80 -98 -34 -218 -77 -268
-95 -49 -18 -188 -67 -308 -110 -197 -69 -220 -75 -231 -60 -11 15 -22 13
-129 -23 -86 -30 -117 -37 -117 -27 0 24 -15 24 -89 -2 -68 -23 -73 -24 -85
-8 -12 17 -16 17 -66 0 -49 -16 -54 -16 -65 -1 -11 15 -17 14 -69 -3 -54 -19
-56 -19 -66 -2 -9 18 -11 18 -62 1 -56 -19 -68 -18 -68 6 0 17 0 17 -43 -1
-45 -19 -44 -19 -50 4 -4 18 -8 18 -43 6 -35 -12 -40 -12 -49 5 -9 17 -14 17
-49 5 -36 -13 -39 -12 -43 6 -4 14 -11 18 -22 14 -9 -4 -28 -9 -43 -12 -22 -4
-28 -2 -28 12 0 13 -5 16 -22 11 -67 -18 -68 -18 -68 -1 0 13 -6 16 -24 13
-17 -3 -27 1 -33 13 -7 16 -12 16 -45 5 -34 -12 -38 -12 -43 5 -5 14 -13 17
-29 13 -16 -4 -25 0 -30 11 -4 11 -13 14 -26 11 -11 -3 -28 -8 -39 -11 -13 -4
-20 1 -24 14 -3 14 -11 18 -26 14 -14 -3 -23 0 -27 11 -4 11 -13 15 -26 10
-12 -3 -24 0 -31 10 -9 12 -20 14 -49 7 -32 -7 -37 -6 -41 11 -4 14 -11 18
-25 14 -13 -5 -22 -1 -26 10 -4 11 -13 14 -27 11 -15 -4 -23 0 -26 14 -4 14
-11 17 -28 13 -15 -4 -24 0 -29 11 -4 11 -13 15 -26 12 -13 -3 -21 1 -25 14
-5 14 -12 18 -25 14 -12 -4 -22 0 -28 11 -6 11 -17 15 -30 12 -14 -4 -22 0
-25 14 -4 14 -11 18 -25 13 -15 -4 -22 0 -27 15 -5 17 -10 18 -26 9 -17 -9
-21 -7 -26 11 -4 16 -11 20 -28 16 -17 -4 -24 -1 -28 15 -5 17 -9 19 -25 10
-16 -9 -21 -7 -25 10 -4 15 -11 19 -25 14 -15 -4 -22 0 -27 15 -5 15 -12 19
-31 14 -18 -5 -24 -2 -24 11 0 13 -6 16 -24 13 -18 -4 -26 0 -29 14 -4 12 -13
17 -28 16 -18 -2 -25 4 -32 30 -9 28 -14 32 -32 28 -17 -4 -24 -1 -28 15 -4
16 -11 19 -26 14 -14 -4 -23 -1 -27 9 -3 9 -16 16 -28 16 -16 0 -25 9 -34 34
-10 26 -17 33 -32 29 -12 -3 -22 1 -26 11 -3 9 -16 16 -28 16 -14 0 -26 10
-35 31 -10 22 -19 29 -32 26 -12 -3 -20 2 -25 15 -4 14 -12 18 -25 15 -16 -4
-23 3 -35 34 -14 33 -19 37 -34 29 -15 -8 -20 -6 -25 10 -4 12 -15 20 -28 20
-18 0 -27 11 -42 51 -15 38 -24 49 -37 46 -13 -4 -24 8 -42 49 -17 36 -31 54
-43 54 -13 0 -24 16 -39 53 -16 40 -25 52 -40 50 -15 -2 -24 10 -40 55 -17 46
-25 57 -41 55 -17 -2 -25 11 -49 75 -44 121 -57 147 -77 147 -21 0 -66 116
-208 528 -43 125 -89 258 -103 296 -22 61 -23 68 -8 77 14 9 13 20 -14 106
-27 82 -29 96 -16 105 13 8 12 18 -7 83 -21 68 -21 75 -6 86 15 11 14 16 -3
69 -19 56 -19 58 -1 62 11 3 19 6 19 8 0 1 -9 28 -20 59 -19 56 -19 58 -1 63
17 4 17 8 6 48 -13 40 -12 43 6 48 18 5 18 7 4 47 -14 39 -14 42 4 47 16 4 17
9 8 45 -8 31 -7 42 3 48 9 6 11 20 6 49 -5 34 -3 41 10 41 12 0 15 6 10 23
-18 66 -18 67 -1 67 14 0 16 6 12 30 -5 23 -3 30 9 30 12 0 13 9 8 45 -5 38
-3 45 11 45 12 0 15 5 10 21 -4 13 -1 25 9 32 12 9 14 20 7 49 -7 32 -6 37 11
41 15 4 18 11 13 26 -4 15 -1 23 10 27 10 4 15 14 12 26 -3 11 2 22 13 28 12
6 16 17 13 30 -3 13 1 22 11 26 9 4 15 14 12 23 -2 9 -7 26 -11 38 -4 16 -1
23 14 28 13 4 17 12 14 25 -3 13 1 22 12 26 11 5 15 14 11 29 -4 17 -1 24 13
28 13 3 18 11 15 23 -6 25 21 41 109 65 63 18 70 18 81 4 9 -13 17 -14 45 -4
29 10 35 10 43 -5 7 -13 17 -16 34 -12 17 5 24 2 24 -9 0 -17 27 -19 63 -6 21
8 26 6 30 -10 4 -13 10 -17 23 -12 10 4 21 0 29 -10 9 -12 19 -14 48 -7 31 7
37 5 42 -11 5 -14 12 -18 31 -13 18 5 24 2 24 -11 0 -13 6 -16 24 -11 18 4 25
1 29 -14 4 -14 10 -18 23 -13 11 4 22 0 30 -12 8 -10 20 -15 29 -11 12 4 19 0
22 -14 4 -15 11 -18 27 -14 18 4 24 -1 36 -30 11 -29 18 -34 35 -30 17 4 24 0
28 -15 3 -15 10 -19 22 -15 9 4 21 -1 29 -11 8 -11 20 -16 29 -12 11 4 20 -5
31 -33 12 -30 19 -37 35 -33 15 4 22 -3 32 -31 10 -28 17 -35 31 -30 25 8 37
-25 14 -38 -11 -6 -15 -16 -11 -28 4 -13 0 -20 -15 -25 -15 -5 -19 -12 -15
-25 4 -12 0 -22 -11 -28 -11 -6 -15 -17 -12 -30 4 -14 0 -22 -14 -25 -14 -4
-18 -11 -14 -25 5 -13 1 -22 -10 -26 -10 -4 -14 -13 -11 -26 3 -13 -1 -24 -13
-30 -12 -6 -16 -17 -13 -30 3 -13 -1 -22 -11 -26 -10 -4 -15 -13 -11 -25 3
-11 7 -28 10 -38 4 -13 0 -21 -13 -25 -14 -5 -18 -13 -14 -31 3 -19 0 -25 -13
-25 -11 0 -15 -6 -11 -17 18 -62 18 -73 1 -73 -18 0 -18 -10 0 -67 6 -17 3
-23 -9 -23 -18 0 -20 -17 -6 -56 8 -21 7 -29 -6 -39 -16 -11 -16 -15 0 -66 17
-50 17 -54 1 -65 -16 -12 -16 -17 3 -73 17 -50 18 -61 6 -61 -22 0 -17 -32 21
-140 31 -89 32 -100 18 -109 -15 -8 -15 -15 5 -77 13 -38 44 -126 70 -196 39
-107 49 -127 64 -122 13 4 21 -2 28 -23 58 -157 62 -164 82 -161 17 2 24 -7
38 -48 27 -78 39 -96 59 -89 14 4 20 -3 30 -35 10 -33 16 -40 33 -38 16 2 24
-8 42 -49 16 -41 25 -52 38 -47 13 4 22 -5 34 -36 13 -31 20 -39 35 -35 13 4
22 -3 35 -30 12 -26 21 -34 34 -30 13 4 20 -1 25 -15 5 -15 12 -19 27 -15 14
5 21 1 24 -13 4 -14 12 -18 29 -14 19 3 25 -2 36 -32 11 -30 16 -35 36 -30 17
5 23 2 23 -11 0 -13 6 -16 24 -11 18 4 25 1 29 -14 3 -14 10 -18 22 -14 9 4
21 -1 29 -11 8 -12 19 -16 30 -12 13 5 19 1 23 -13 4 -15 11 -18 29 -14 18 5
24 2 24 -11 0 -13 6 -16 25 -13 18 4 26 0 31 -14 4 -13 11 -17 24 -13 12 4 22
0 28 -11 6 -11 17 -15 30 -12 15 4 23 0 27 -12 5 -16 11 -17 41 -8 30 8 38 6
48 -8 8 -10 20 -15 29 -11 11 4 20 -1 27 -13 9 -16 15 -18 36 -10 37 14 54 12
54 -6 0 -12 6 -15 24 -10 17 4 26 1 30 -10 6 -16 26 -15 69 2 10 3 18 -2 22
-15 6 -19 8 -19 45 -6 37 13 39 13 45 -6 5 -14 12 -18 23 -14 45 17 72 17 72
1 0 -13 6 -15 28 -10 15 4 35 11 45 16 12 6 17 5 17 -6 0 -25 16 -26 74 -6 45
15 56 16 56 5 0 -23 13 -24 70 -5 51 18 56 18 67 3 11 -15 23 -13 125 21 101
34 113 36 124 22 10 -15 30 -10 195 48 234 82 244 87 244 110 0 14 21 26 92
51 118 43 134 52 127 70 -4 11 5 20 32 30 101 41 112 47 107 64 -4 14 7 22 49
37 42 16 53 24 52 41 0 17 11 26 58 43 48 17 58 25 53 39 -4 15 6 23 51 41 43
18 55 27 51 41 -4 14 7 23 50 40 42 17 54 26 50 40 -4 13 5 22 35 34 31 12 38
19 33 34 -4 15 3 22 34 34 31 13 38 20 34 36 -4 15 3 21 32 31 29 10 36 16 32
31 -4 16 3 23 33 35 29 12 37 20 33 35 -4 15 3 23 31 34 29 12 36 20 31 34 -5
15 2 22 30 31 27 9 35 17 35 36 0 15 6 24 16 24 12 0 15 6 10 24 -5 21 -1 26
29 36 26 8 35 17 35 33 0 15 10 27 30 35 21 10 30 21 30 38 0 15 6 24 15 24 9
0 15 9 15 24 0 17 9 27 30 36 21 9 30 19 30 36 0 15 6 24 15 24 9 0 15 9 15
24 0 13 7 27 16 30 9 4 13 13 10 24 -5 14 3 22 30 35 27 13 34 22 29 36 -4 13
0 20 16 24 15 4 19 11 14 25 -4 15 0 22 14 27 13 4 17 12 14 25 -4 15 3 23 30
36 25 12 33 21 30 35 -3 11 1 21 11 25 9 3 16 17 16 30 0 15 6 24 16 24 12 0
15 6 10 24 -4 18 -1 25 14 29 14 3 18 10 14 22 -4 9 1 21 11 29 11 8 16 20 12
29 -4 12 4 21 29 33 26 12 34 22 31 35 -3 12 2 20 14 24 14 5 18 12 14 26 -4
12 -1 21 9 25 9 3 16 16 16 29 0 13 7 26 16 29 10 4 13 13 9 25 -4 14 0 21 15
26 15 5 19 12 15 26 -4 12 -1 21 9 25 9 3 16 16 16 29 0 13 7 26 16 29 10 4
14 12 10 22 -4 10 1 22 11 29 15 11 14 19 -17 106 -50 140 -67 174 -86 174
-13 0 -26 24 -50 90 -39 105 -38 105 -19 105 21 0 20 8 -21 132 -34 101 -39
109 -59 104 -17 -4 -24 -1 -28 14 -3 14 -10 18 -22 14 -9 -4 -21 1 -29 11 -8
12 -19 16 -30 12 -13 -5 -19 -1 -23 13 -4 15 -11 18 -29 14 -18 -5 -24 -2 -24
11 0 13 -6 16 -25 13 -18 -4 -26 0 -31 14 -4 13 -11 17 -25 13 -12 -4 -21 -1
-25 9 -3 9 -16 16 -29 16 -13 0 -26 7 -29 16 -4 10 -13 13 -25 9 -12 -4 -21 0
-25 11 -4 10 -13 14 -26 11 -13 -3 -21 1 -26 15 -4 15 -12 18 -30 14 -18 -5
-24 -2 -24 10 0 12 -7 15 -25 12 -18 -4 -26 0 -30 13 -5 14 -13 17 -29 13 -15
-4 -25 0 -29 9 -4 12 -14 13 -42 7 -32 -7 -38 -6 -42 11 -4 14 -11 17 -28 13
-15 -4 -24 0 -29 11 -4 12 -13 15 -27 12 -12 -3 -22 0 -26 9 -3 8 -15 14 -28
14 -13 0 -25 7 -29 15 -3 8 -11 13 -18 11 -52 -16 -66 -15 -71 5 -5 17 -9 19
-26 10 -16 -9 -21 -8 -26 9 -5 15 -12 19 -27 15 -12 -4 -24 -1 -31 9 -10 13
-19 14 -45 7 -27 -8 -34 -7 -42 9 -7 12 -16 17 -27 13 -9 -4 -21 1 -28 10 -10
13 -18 15 -46 7 -27 -8 -36 -7 -45 5 -6 8 -20 15 -32 15 -11 0 -22 6 -25 14
-5 12 -13 12 -42 4 -30 -10 -37 -9 -48 6 -10 14 -17 15 -45 5 -28 -10 -35 -9
-46 6 -8 11 -20 16 -30 12 -11 -4 -19 -1 -23 9 -6 16 -33 15 -74 -1 -11 -4
-18 0 -22 14 -5 20 -7 20 -46 6 -35 -12 -41 -12 -41 0 0 22 -15 26 -50 13 -28
-9 -35 -8 -45 5 -10 14 -18 15 -50 6 -32 -9 -40 -8 -47 5 -7 13 -14 13 -56 1
-60 -19 -72 -19 -72 1 0 10 -6 14 -17 10 -57 -17 -71 -17 -80 -3 -7 13 -18 12
-83 -9 -41 -13 -76 -24 -77 -24 -2 0 -3 7 -3 15 0 19 -23 18 -75 0 -50 -18
-63 -19 -67 -1 -2 11 -11 11 -54 0 -72 -18 -134 -47 -134 -61 0 -6 222 -640
494 -1407 272 -767 497 -1408 500 -1423 6 -27 4 -30 -49 -48 -45 -15 -55 -22
-53 -39 3 -22 -51 -44 -436 -177 -158 -55 -180 -60 -190 -47 -10 14 -20 13
-86 -8 -41 -13 -76 -24 -77 -24 -2 0 -3 7 -3 16 0 13 -7 15 -36 10 -19 -4 -42
-10 -50 -13 -8 -3 -14 1 -14 11 0 20 -4 20 -65 1 -51 -15 -65 -13 -65 10 0 11
-6 12 -24 5 -20 -7 -26 -6 -31 10 -5 16 -10 17 -42 8 -30 -8 -38 -7 -45 6 -6
11 -17 14 -34 10 -18 -5 -24 -2 -24 10 0 16 -18 16 -68 0 -8 -2 -16 5 -19 16
-4 15 -11 18 -29 14 -18 -5 -24 -2 -24 11 0 13 -6 16 -25 13 -18 -4 -26 0 -30
13 -5 14 -12 18 -31 13 -18 -5 -24 -2 -24 11 0 13 -6 16 -24 11 -19 -5 -26 -1
-31 14 -5 16 -10 18 -25 10 -15 -8 -20 -6 -25 10 -5 15 -12 19 -27 15 -14 -5
-21 -1 -25 14 -4 16 -11 19 -29 15 -18 -5 -24 -2 -24 11 0 13 -6 16 -24 13
-18 -4 -26 0 -30 15 -3 14 -11 18 -25 14 -12 -3 -21 -4 -21 -2 0 2 -3 10 -6
18 -3 9 3 16 16 20 18 5 20 9 11 26 -9 16 -8 21 9 26 15 5 19 12 15 25 -4 12
0 22 11 28 11 6 15 17 12 30 -4 15 0 23 12 27 16 5 17 11 8 41 -8 30 -6 38 8
48 11 8 15 20 11 30 -4 10 -1 19 9 23 13 5 14 15 9 49 -5 37 -4 44 10 44 13 0
16 6 11 24 -4 17 -1 26 10 30 16 6 15 26 -2 69 -3 10 2 18 15 22 19 6 19 8 6
45 -12 35 -12 41 2 49 14 7 14 15 6 50 -9 33 -8 41 3 41 18 0 18 27 -1 80 -18
52 -19 47 4 53 19 5 19 6 0 62 -17 52 -17 59 -3 69 14 11 12 22 -15 106 -26
82 -28 95 -15 105 17 12 11 32 -84 300 -89 250 -92 257 -112 252 -14 -4 -22 6
-35 42 -45 119 -58 143 -76 138 -14 -4 -22 6 -35 47 -27 82 -41 105 -62 99
-14 -3 -21 3 -28 29 -8 25 -16 33 -32 32 -16 0 -26 11 -43 54 -17 42 -26 53
-40 49 -12 -3 -20 2 -25 15 -4 15 -12 18 -29 14 -18 -5 -24 0 -31 26 -6 22
-17 34 -33 38 -13 3 -31 19 -41 37 -12 23 -20 29 -32 22 -12 -7 -17 -3 -22 17
-5 19 -11 24 -26 19 -14 -4 -22 -1 -26 10 -5 11 -14 15 -28 11 -18 -4 -24 1
-35 29 -9 27 -18 35 -37 35 -15 0 -24 6 -24 16 0 12 -6 15 -24 10 -18 -4 -25
-1 -29 14 -3 14 -10 18 -22 14 -9 -4 -21 1 -29 11 -8 12 -19 16 -30 12 -13 -5
-19 -1 -23 13 -4 15 -11 18 -29 14 -18 -5 -24 -2 -24 11 0 13 -6 16 -25 13
-18 -4 -26 0 -31 14 -4 13 -11 17 -26 13 -14 -5 -21 -1 -25 13 -3 14 -11 18
-25 14 -13 -3 -24 1 -30 12 -6 10 -16 15 -28 11 -11 -3 -20 0 -24 10 -3 8 -17
15 -31 15 -16 0 -25 6 -25 16 0 10 -6 14 -17 10 -61 -18 -73 -18 -73 -1 0 13
-6 16 -24 11 -19 -5 -26 -1 -31 13 -6 18 -9 19 -45 6 -37 -13 -39 -13 -45 6
-5 14 -12 18 -23 14 -10 -4 -29 -9 -44 -12 -22 -4 -28 -2 -28 12 0 13 -6 16
-24 11 -17 -4 -28 -1 -33 9 -8 13 -15 13 -62 -1 -49 -14 -54 -14 -65 2 -11 15
-18 15 -46 6 -43 -16 -50 -15 -50 3 0 17 -27 14 -92 -11 -33 -12 -38 -12 -38
1 0 22 -40 19 -116 -10 -77 -29 -94 -31 -94 -10 0 8 -1 15 -3 15 -14 0 -632
-217 -675 -237 -23 -11 -31 -21 -27 -32 4 -13 -11 -23 -75 -46 -71 -26 -79
-31 -74 -51 4 -17 0 -23 -23 -29 -15 -3 -49 -16 -74 -27 -36 -15 -46 -24 -42
-38 4 -15 -4 -21 -34 -30 -33 -10 -39 -16 -36 -34 4 -17 -4 -24 -49 -41 -42
-17 -52 -25 -50 -41 2 -15 -7 -23 -34 -33 -28 -10 -35 -17 -31 -32 4 -14 -4
-23 -30 -35 -25 -12 -33 -22 -30 -35 3 -12 -2 -20 -14 -24 -11 -4 -19 -16 -19
-29 0 -16 -9 -25 -34 -34 -26 -10 -33 -17 -29 -32 3 -12 -1 -22 -11 -26 -9 -3
-16 -16 -16 -28 0 -14 -10 -26 -31 -35 -22 -10 -29 -19 -26 -32 3 -12 -2 -20
-15 -25 -14 -4 -18 -12 -15 -26 4 -14 0 -22 -14 -25 -16 -4 -19 -11 -15 -29 5
-17 1 -24 -13 -29 -13 -4 -18 -12 -14 -22 4 -9 -1 -21 -12 -29 -10 -7 -15 -20
-12 -28 4 -10 -2 -20 -13 -26 -16 -9 -18 -15 -10 -29 8 -15 5 -20 -11 -24 -15
-4 -19 -11 -14 -25 4 -15 0 -22 -13 -26 -14 -5 -18 -13 -14 -31 3 -19 0 -25
-13 -25 -13 0 -16 -6 -11 -24 4 -17 1 -28 -10 -34 -13 -7 -14 -15 -6 -45 9
-32 8 -37 -9 -42 -14 -5 -18 -12 -13 -31 5 -18 2 -24 -11 -24 -17 0 -17 -11 1
-71 3 -11 -3 -18 -16 -22 -19 -5 -20 -9 -10 -27 10 -18 9 -22 -8 -27 -18 -4
-19 -9 -10 -41 8 -30 7 -38 -7 -48 -15 -11 -15 -17 -5 -50 11 -31 10 -38 -3
-45 -12 -7 -13 -16 -5 -46 21 -83 21 -83 4 -83 -20 0 -20 -5 3 -73 16 -46 17
-57 6 -57 -23 0 -24 -13 -4 -70 18 -51 18 -56 3 -67 -16 -12 -13 -24 28 -146
40 -118 43 -135 29 -144 -14 -9 -12 -19 13 -94 58 -174 80 -220 98 -216 13 4
21 -7 34 -42 66 -178 69 -186 89 -183 16 2 25 -11 46 -70 22 -61 30 -73 47
-71 17 2 25 -8 43 -57 18 -51 24 -58 39 -50 14 8 20 2 33 -31 13 -33 20 -40
36 -34 17 5 22 -1 32 -33 9 -33 15 -38 34 -34 19 3 25 -2 35 -32 9 -29 16 -36
31 -31 14 5 22 -2 34 -31 12 -28 19 -35 35 -31 13 3 21 -1 25 -14 5 -14 12
-18 25 -14 15 5 23 -2 35 -31 12 -28 19 -35 35 -31 13 3 21 -1 25 -14 5 -14
12 -18 25 -14 12 4 22 0 28 -11 6 -11 17 -15 29 -12 16 4 23 -2 34 -29 10 -25
18 -33 31 -30 11 3 22 -2 29 -14 7 -13 16 -18 29 -14 13 4 20 0 24 -13 5 -14
13 -18 31 -14 19 3 25 0 25 -13 0 -13 6 -16 24 -11 17 4 26 1 30 -10 5 -13 15
-15 46 -10 33 5 40 3 40 -10 0 -12 7 -15 25 -12 18 4 26 0 30 -13 5 -14 12
-18 31 -13 18 5 24 2 24 -11 0 -13 6 -16 25 -11 18 5 27 2 31 -9 6 -16 49 -16
73 0 6 3 11 3 11 -2 1 -26 17 -33 50 -22 28 10 35 10 46 -6 8 -11 19 -15 30
-11 9 4 21 0 28 -8 8 -11 20 -13 46 -7 25 5 38 3 46 -7 8 -11 18 -12 48 -4 30
9 38 8 43 -4 6 -16 29 -14 91 5 26 8 34 7 39 -5 3 -7 16 -14 29 -14 15 0 24
-6 24 -16 0 -12 7 -15 24 -12 20 4 26 -1 36 -33 11 -32 17 -38 35 -33 18 4 23
0 32 -28 7 -25 14 -32 30 -31 16 2 25 -7 37 -38 14 -33 19 -38 34 -30 15 8 21
3 35 -29 12 -29 21 -37 35 -33 14 3 21 -2 25 -17 4 -17 9 -20 23 -12 14 8 21
5 31 -15 7 -14 13 -32 13 -39 0 -10 7 -13 24 -8 18 4 25 1 29 -16 5 -18 9 -20
25 -11 16 9 21 7 25 -11 4 -15 11 -19 27 -15 12 3 23 0 25 -6 23 -67 25 -68
44 -58 15 9 20 7 24 -11 4 -15 11 -19 28 -15 15 4 23 1 26 -14 4 -14 11 -17
27 -13 18 4 24 -1 36 -31 10 -26 18 -34 31 -30 11 4 22 -1 28 -14 7 -13 17
-17 31 -14 14 4 20 0 20 -12 0 -13 6 -16 25 -13 18 4 26 0 31 -14 4 -13 11
-17 25 -13 12 4 21 1 25 -9 3 -9 17 -16 29 -16 16 0 27 -9 37 -30 9 -22 18
-30 31 -26 10 2 21 -3 27 -15 6 -11 16 -16 26 -12 8 3 21 -2 28 -12 8 -11 20
-16 29 -12 10 4 18 -1 22 -14 5 -14 12 -18 31 -13 18 5 24 2 24 -10 0 -10 9
-16 24 -16 13 0 27 -7 30 -16 4 -10 13 -13 27 -9 15 5 22 2 26 -13 3 -14 11
-18 25 -14 13 3 24 -1 29 -10 7 -13 17 -14 45 -8 31 7 37 6 41 -11 4 -14 11
-17 28 -13 15 4 24 0 29 -11 4 -11 13 -15 25 -12 12 3 22 -1 25 -9 3 -8 17
-14 31 -14 16 0 25 -6 25 -16 0 -12 6 -15 24 -10 16 4 26 1 30 -10 6 -15 50
-15 75 0 5 4 12 -3 16 -14 5 -15 12 -19 25 -15 12 4 22 0 28 -11 6 -11 17 -15
30 -12 13 4 23 0 26 -9 4 -10 16 -12 45 -8 29 4 40 2 45 -10 4 -11 13 -14 31
-9 19 5 25 2 25 -10 0 -13 8 -15 43 -10 34 5 45 3 50 -9 5 -13 12 -14 42 -4
32 9 38 9 47 -6 6 -12 16 -15 34 -11 18 5 24 2 24 -11 0 -11 6 -15 18 -12 60
17 72 17 72 2 0 -13 7 -15 38 -9 20 4 39 8 41 10 2 2 10 -4 16 -13 11 -14 18
-15 48 -6 30 9 36 8 44 -7 8 -17 10 -17 65 0 54 17 57 17 65 -1 7 -16 12 -16
46 -4 34 12 38 11 47 -6 10 -17 12 -17 65 1 50 17 55 18 64 2 8 -15 13 -15 63
1 67 21 68 21 68 2 0 -19 15 -19 74 1 43 15 48 15 59 1 11 -14 20 -13 86 8 66
21 76 22 86 9 9 -14 22 -12 105 15 84 27 95 28 105 14 10 -14 28 -10 164 36
84 29 155 51 157 48 3 -2 9 -18 13 -35 8 -26 6 -32 -10 -37 -14 -5 -18 -12
-13 -31 5 -18 2 -24 -11 -24 -13 0 -16 -6 -11 -24 4 -18 1 -25 -14 -29 -14 -4
-18 -10 -13 -23 4 -11 0 -22 -12 -30 -10 -8 -15 -20 -11 -29 4 -12 0 -19 -14
-22 -15 -4 -18 -11 -14 -28 4 -15 0 -24 -11 -29 -11 -4 -15 -13 -12 -26 3 -13
-1 -21 -14 -25 -14 -5 -18 -12 -14 -27 5 -14 1 -21 -13 -25 -17 -4 -19 -9 -12
-28 7 -19 5 -24 -12 -28 -14 -4 -18 -11 -13 -25 4 -15 0 -22 -13 -26 -14 -5
-18 -13 -14 -31 3 -19 0 -25 -13 -25 -13 0 -16 -6 -11 -24 4 -18 1 -25 -14
-29 -14 -3 -18 -10 -14 -22 4 -9 -1 -21 -11 -29 -12 -8 -16 -19 -12 -30 5 -13
1 -19 -13 -23 -15 -4 -18 -11 -14 -29 5 -18 2 -24 -11 -24 -13 0 -16 -6 -13
-25 4 -18 0 -26 -14 -31 -13 -4 -17 -11 -13 -24 4 -12 0 -22 -11 -28 -10 -6
-15 -16 -11 -26 4 -10 -1 -20 -13 -26 -12 -6 -17 -16 -13 -26 3 -8 -2 -21 -12
-28 -11 -8 -16 -20 -12 -29 4 -11 -1 -20 -12 -27 -13 -6 -17 -17 -14 -30 4
-14 0 -20 -12 -20 -13 0 -16 -6 -13 -25 4 -18 0 -26 -14 -31 -13 -4 -17 -11
-13 -24 4 -12 0 -22 -11 -28 -10 -6 -15 -16 -11 -26 4 -10 -1 -20 -13 -26 -12
-6 -17 -16 -13 -26 3 -8 -2 -21 -12 -28 -11 -8 -16 -20 -12 -29 4 -10 -1 -18
-14 -22 -14 -5 -18 -12 -13 -31 5 -18 2 -24 -11 -24 -13 0 -16 -6 -13 -25 4
-17 0 -26 -12 -30 -12 -4 -16 -13 -12 -30 3 -19 0 -25 -13 -25 -13 0 -16 -6
-11 -24 4 -18 1 -25 -13 -29 -14 -3 -18 -11 -14 -26 3 -14 0 -23 -11 -27 -11
-4 -14 -13 -11 -24 4 -12 -1 -22 -11 -28 -13 -7 -16 -18 -11 -47 5 -31 3 -38
-12 -42 -13 -3 -17 -11 -13 -25 3 -13 -1 -24 -12 -30 -11 -6 -15 -16 -11 -28
4 -13 0 -20 -14 -25 -13 -4 -17 -12 -14 -25 3 -13 -1 -22 -12 -26 -11 -5 -15
-14 -11 -29 4 -17 1 -24 -14 -28 -14 -3 -18 -10 -14 -22 4 -9 -1 -21 -11 -29
-12 -8 -16 -19 -12 -30 5 -13 1 -19 -13 -23 -15 -4 -18 -11 -14 -29 5 -18 2
-24 -11 -24 -13 0 -16 -6 -11 -24 4 -18 1 -25 -14 -29 -14 -4 -18 -10 -13 -23
4 -11 0 -22 -12 -30 -10 -8 -15 -20 -11 -29 4 -12 0 -19 -14 -22 -15 -4 -18
-11 -14 -28 4 -15 0 -24 -11 -29 -11 -4 -15 -13 -12 -26 3 -13 -1 -21 -14 -25
-14 -5 -18 -12 -14 -25 4 -12 0 -22 -11 -28 -11 -6 -15 -17 -12 -30 4 -14 0
-22 -14 -25 -14 -4 -18 -11 -13 -25 4 -15 0 -22 -13 -26 -14 -5 -18 -13 -14
-31 3 -19 0 -25 -13 -25 -13 0 -16 -6 -11 -24 4 -18 1 -25 -13 -29 -14 -3 -18
-11 -14 -26 3 -14 0 -23 -11 -27 -11 -4 -15 -13 -11 -25 4 -12 1 -21 -9 -25
-9 -3 -16 -16 -16 -29 0 -13 -7 -26 -16 -29 -10 -4 -13 -13 -9 -25 4 -14 0
-21 -13 -25 -14 -5 -18 -13 -14 -31 3 -19 0 -25 -13 -25 -13 0 -16 -6 -11 -24
4 -18 1 -25 -13 -29 -14 -3 -18 -11 -14 -26 3 -14 0 -23 -12 -27 -12 -5 -15
-14 -11 -30 5 -17 2 -24 -9 -24 -9 0 -15 -9 -15 -24 0 -13 -7 -27 -16 -30 -10
-4 -13 -13 -9 -27 5 -15 2 -22 -13 -26 -14 -3 -18 -11 -14 -25 3 -13 -1 -24
-11 -30 -10 -5 -14 -15 -10 -25 4 -9 -1 -19 -10 -25 -10 -5 -17 -17 -17 -27 0
-15 -1295 -477 -7437 -2652 l-7438 -2635 -11 25 c-23 52 -4635 13083 -4632
13086 2 2 1299 463 2883 1024 1584 561 4937 1749 7450 2640 2514 891 4573
1620 4577 1620 4 1 9 -8 13 -18z m2551 -8868 c-10 -10 -19 5 -10 18 6 11 8 11
12 0 2 -7 1 -15 -2 -18z"/>
<path d="M12795 20395 c-773 -276 -695 -245 -689 -274 3 -14 8 -34 11 -43 3
-12 -1 -18 -12 -18 -20 0 -15 -31 21 -132 22 -63 22 -68 6 -77 -16 -9 -14 -17
15 -105 28 -87 30 -97 15 -105 -15 -9 -14 -18 15 -105 28 -87 30 -97 15 -105
-15 -9 -14 -18 15 -105 28 -87 30 -97 15 -105 -15 -9 -14 -19 15 -106 30 -91
31 -97 13 -102 -17 -5 -17 -9 10 -87 25 -75 26 -84 11 -93 -14 -9 -13 -19 16
-107 24 -74 28 -96 17 -96 -21 0 -17 -26 15 -121 26 -78 27 -87 12 -96 -14 -9
-13 -19 15 -106 30 -90 31 -96 13 -100 -17 -5 -16 -11 15 -105 32 -95 33 -100
15 -105 -18 -5 -17 -10 15 -102 l33 -96 -26 -11 c-23 -9 -1872 -665 -1998
-708 l-52 -18 -26 76 c-21 64 -23 79 -12 86 17 11 9 52 -24 142 -19 49 -20 59
-7 68 16 13 14 27 -19 125 -22 63 -23 76 -11 85 17 13 14 27 -23 136 -33 96
-35 110 -14 110 20 0 20 1 -15 100 -34 96 -36 110 -15 110 19 0 20 -9 -15 95
-34 102 -36 115 -14 115 9 0 14 6 11 13 -2 6 -17 52 -33 100 -26 80 -27 89
-12 98 15 8 13 18 -15 105 -29 87 -30 96 -15 105 15 8 14 18 -17 108 -31 93
-32 99 -14 104 17 5 16 11 -16 106 -25 76 -30 101 -20 101 25 0 24 14 -6 100
-36 104 -52 140 -61 140 -6 0 -1069 -375 -1120 -395 -10 -4 -14 -13 -11 -21 3
-8 -2 -20 -11 -27 -14 -10 -15 -17 -5 -46 10 -29 10 -36 -5 -47 -16 -11 -15
-18 14 -105 30 -87 31 -93 15 -106 -17 -12 -16 -18 15 -103 30 -87 31 -92 14
-104 -17 -13 -16 -18 15 -105 31 -86 32 -93 16 -105 -16 -11 -15 -17 9 -87 30
-88 31 -89 11 -89 -18 0 -15 -19 22 -129 22 -65 23 -75 10 -82 -13 -8 -13 -15
-1 -63 8 -29 21 -70 29 -89 19 -46 19 -57 0 -57 -20 0 -20 -5 15 -107 28 -81
29 -89 13 -100 -15 -12 -14 -20 15 -105 30 -86 31 -94 15 -105 -15 -12 -14
-20 15 -105 30 -86 31 -94 15 -105 -15 -12 -14 -20 15 -105 29 -85 31 -94 15
-105 -15 -12 -14 -18 10 -88 l26 -76 -22 -8 c-12 -5 -458 -163 -992 -351 -533
-189 -974 -346 -978 -351 -7 -6 423 -1242 436 -1256 3 -2 384 131 848 295 717
254 845 297 850 283 4 -9 18 -52 32 -96 22 -69 24 -82 12 -91 -13 -10 -13 -18
0 -68 8 -31 22 -73 30 -93 15 -35 15 -39 -1 -50 -17 -12 -16 -19 14 -107 37
-109 37 -106 17 -106 -18 0 -15 -19 21 -126 28 -83 28 -84 9 -84 -18 0 -15
-19 21 -126 28 -83 28 -84 9 -84 -19 0 -15 -19 27 -143 28 -82 29 -89 13 -101
-15 -11 -14 -19 14 -101 17 -48 31 -92 31 -96 0 -10 15 -5 -1000 -364 -487
-172 -893 -316 -902 -320 -10 -4 -14 -13 -11 -22 4 -9 -1 -21 -10 -28 -17 -13
-33 36 246 -757 129 -366 154 -428 170 -428 11 0 25 -6 31 -14 9 -12 143 33
811 270 440 156 803 280 806 276 8 -9 59 -165 59 -181 0 -6 -7 -11 -15 -11
-18 0 -14 -23 21 -119 28 -74 30 -91 9 -91 -20 0 -19 -7 12 -91 23 -62 24 -73
12 -83 -17 -13 -15 -27 18 -125 22 -63 23 -76 11 -85 -16 -13 -14 -27 19 -125
22 -63 23 -76 11 -85 -16 -13 -14 -27 19 -125 22 -64 23 -76 11 -85 -16 -12
-17 -11 19 -120 22 -69 24 -81 11 -90 -16 -12 -17 -11 19 -120 22 -69 24 -81
11 -90 -16 -12 -17 -11 19 -120 23 -70 24 -81 10 -91 -13 -10 -12 -21 14 -100
33 -103 34 -112 15 -117 -12 -2 -9 -20 15 -93 33 -103 34 -112 15 -117 -12 -2
-9 -21 16 -97 26 -83 28 -96 15 -106 -13 -9 -11 -22 15 -105 26 -81 28 -96 16
-104 -12 -7 -13 -17 -5 -48 8 -33 13 -39 31 -34 40 10 1213 428 1227 437 12 7
10 21 -12 84 -25 71 -25 75 -7 81 21 6 21 7 -17 112 -17 46 -19 62 -9 62 24 0
23 15 -10 113 -23 68 -29 97 -20 97 24 0 23 16 -10 112 -25 75 -29 98 -19 102
19 8 16 33 -16 123 -22 65 -25 83 -15 87 20 8 17 31 -15 123 -24 66 -26 83
-15 87 20 8 17 31 -15 123 -24 66 -26 83 -15 87 20 8 17 31 -15 123 -24 66
-26 83 -15 87 20 8 18 27 -15 120 -27 75 -28 83 -13 93 16 9 14 19 -14 105
-28 85 -30 96 -15 105 14 9 13 20 -15 105 -28 84 -29 96 -16 105 14 8 12 21
-14 105 -27 83 -29 96 -15 105 13 8 11 21 -16 106 -28 88 -29 97 -13 102 16 5
16 9 -1 62 -11 31 -18 58 -16 60 3 3 2029 722 2058 730 12 3 20 -5 28 -29 10
-28 9 -35 -5 -45 -15 -11 -14 -18 10 -91 31 -93 30 -92 11 -92 -19 0 -16 -21
19 -120 22 -63 23 -75 11 -84 -13 -10 -13 -18 0 -67 8 -31 22 -73 31 -94 14
-34 14 -38 -2 -50 -16 -11 -15 -18 14 -105 28 -85 30 -94 15 -105 -15 -11 -14
-21 15 -106 27 -80 29 -95 17 -102 -17 -9 -14 -27 21 -131 21 -62 22 -70 8
-80 -14 -10 -12 -22 15 -106 26 -82 28 -95 15 -105 -14 -9 -12 -22 15 -105 26
-82 28 -95 15 -105 -14 -9 -12 -22 15 -105 27 -84 29 -96 16 -106 -14 -10 -12
-23 15 -105 26 -83 28 -95 15 -105 -14 -10 -12 -23 15 -105 26 -83 28 -95 15
-105 -14 -10 -12 -23 15 -105 26 -83 28 -95 15 -105 -14 -10 -12 -23 15 -108
17 -53 33 -96 35 -96 12 0 1201 424 1209 431 6 5 5 22 -1 44 -9 29 -9 37 5 44
14 8 13 19 -15 103 -28 84 -30 94 -15 105 14 12 12 22 -15 105 -28 84 -30 94
-15 105 14 12 12 22 -15 105 -28 84 -30 94 -15 105 14 12 13 22 -16 107 -37
109 -37 106 -17 106 20 0 20 5 -15 108 -35 104 -35 102 -15 102 20 0 20 5 -15
108 -35 104 -35 102 -15 102 20 0 20 5 -15 108 -35 104 -35 102 -15 102 20 0
20 5 -15 107 -35 102 -35 103 -15 103 20 0 20 5 -15 107 -35 102 -35 103 -15
103 18 0 15 19 -21 124 -28 82 -29 86 -9 86 20 0 20 3 -15 105 -35 102 -35
105 -15 105 20 0 20 3 -15 105 -35 102 -35 105 -15 105 20 0 19 4 -10 90 -14
40 -24 74 -22 76 3 3 384 139 1232 440 369 130 674 240 678 244 6 5 -374 1099
-428 1233 -5 13 -15 17 -29 14 -12 -2 -378 -131 -815 -286 -436 -154 -800
-281 -807 -281 -8 0 -14 9 -14 20 0 11 5 20 10 20 17 0 11 32 -24 138 -32 95
-33 102 -16 107 17 5 16 12 -15 104 -29 86 -31 99 -17 107 14 9 12 20 -12 97
-15 48 -29 94 -32 102 -4 9 0 15 10 15 22 0 21 8 -19 128 -33 97 -34 106 -18
117 15 11 14 19 -16 106 -30 85 -31 94 -16 105 15 11 14 20 -14 104 -36 105
-36 110 -16 110 17 0 13 27 -12 88 -11 26 -11 33 -1 37 7 3 420 149 917 325
497 176 906 322 909 325 8 7 -23 100 -187 560 -102 288 -135 391 -125 393 20
5 18 15 -29 147 -35 101 -46 121 -65 123 -12 2 -22 10 -22 18 0 8 -6 14 -13
14 -11 0 -1469 -513 -1548 -545 -12 -4 -21 7 -37 51 -20 55 -20 56 -1 61 10 3
19 6 19 7 0 2 -16 47 -35 100 -32 94 -33 98 -15 103 11 3 20 6 20 7 0 2 -15
46 -34 99 -33 92 -33 98 -16 107 18 10 17 15 -15 105 -32 91 -32 96 -15 105
18 10 17 15 -16 106 -19 53 -34 97 -34 99 0 1 9 5 19 8 18 4 17 10 -15 102
-19 54 -34 100 -34 102 0 2 7 3 15 3 21 0 19 17 -15 117 -16 48 -30 89 -30 90
0 2 7 3 16 3 19 0 14 30 -22 134 -28 82 -28 76 -9 76 20 0 19 6 -15 112 -25
80 -27 93 -14 103 14 9 12 22 -15 105 -27 85 -29 95 -14 106 15 10 14 20 -15
104 -29 84 -30 94 -16 105 14 10 15 17 4 49 -10 30 -16 37 -32 33 -11 -3 -21
0 -25 9 -3 8 -10 14 -17 13 -6 0 -218 -74 -471 -164z m-129 -3987 c11 -33 11
-37 -6 -41 -18 -5 -18 -6 0 -63 10 -33 23 -72 29 -87 15 -39 14 -57 -4 -57
-20 0 -20 -2 17 -107 30 -87 31 -93 15 -105 -17 -13 -16 -19 17 -111 27 -74
32 -97 21 -97 -25 0 -24 -15 10 -113 25 -73 30 -97 20 -97 -25 0 -24 -15 10
-112 28 -81 31 -97 19 -102 -19 -7 -14 -40 19 -132 22 -63 23 -71 10 -80 -15
-9 -14 -18 6 -83 12 -40 21 -74 19 -76 -2 -2 -403 -145 -893 -318 -489 -174
-953 -338 -1030 -366 -77 -28 -143 -47 -146 -43 -3 4 -14 27 -23 52 -17 42
-17 45 0 57 17 13 16 18 -14 106 -29 85 -31 93 -15 105 16 11 15 19 -15 106
-37 107 -37 106 -17 106 20 0 20 5 -15 107 -35 102 -35 103 -15 103 20 0 20 5
-15 107 -35 102 -35 103 -15 103 20 0 20 4 -16 110 -28 83 -29 92 -15 103 15
11 13 21 -15 105 -28 83 -29 95 -16 105 14 11 14 18 -3 69 l-17 57 71 26 c474
172 1984 703 1995 702 8 -1 20 -18 27 -39z"/>
</g>
</svg>
